HIERARCHY
ROOT ui
{
	 OFFSET 0 0 0
	 CHANNELS 3 XPosition YPosition Z Position
	 EndSite
	 {
	 OFFSET 0 -1 0
	 }
}
ROOT li
{
	 OFFSET 0 0 0
	 CHANNELS 3 XPosition YPosition Z Position
	 EndSite
	 {
	 OFFSET 0 -1 0
	 }
}
ROOT ul
{
	 OFFSET 0 0 0
	 CHANNELS 3 XPosition YPosition Z Position
	 EndSite
	 {
	 OFFSET 0 -1 0
	 }
}
ROOT ll
{
	 OFFSET 0 0 0
	 CHANNELS 3 XPosition YPosition Z Position
	 EndSite
	 {
	 OFFSET 0 -1 0
	 }
}
ROOT tt
{
	 OFFSET 0 0 0
	 CHANNELS 3 XPosition YPosition Z Position
	 EndSite
	 {
	 OFFSET 0 -1 0
	 }
}
ROOT tb
{
	 OFFSET 0 0 0
	 CHANNELS 3 XPosition YPosition Z Position
	 EndSite
	 {
	 OFFSET 0 -1 0
	 }
}
ROOT td
{
	 OFFSET 0 0 0
	 CHANNELS 3 XPosition YPosition Z Position
	 EndSite
	 {
	 OFFSET 0 -1 0
	 }
}
ROOT v
{
	 OFFSET 0 0 0
	 CHANNELS 3 XPosition YPosition Z Position
	 EndSite
	 {
	 OFFSET 0 -1 0
	 }
}
ROOT bn
{
	 OFFSET 0 0 0
	 CHANNELS 3 XPosition YPosition Z Position
	 EndSite
	 {
	 OFFSET 0 -1 0
	 }
}
MOTION
Frames: 16
Frame Time: 0.002
0.0024646599292755126	0.001633573055267334	0		0.46518191528320313	-2.456461669921875	0		-1.024031494140625	0.04771661376953125	0		-0.702048583984375	-2.545596435546875	0		1.377974365234375	-0.7519539184570313	0		3.066916015625	-0.13942417907714844	0		4.5728583984375	0.003399159908294678	0		5.613251953125	0.106151123046875	0		-0.14193374633789063	5.935955078125	0		
0.0011271400451660157	0.009127731323242188	0		0.44002496337890623	-2.451622802734375	0		-1.0594210205078125	0.05155085754394531	0		-0.7091105346679687	-2.5340888671875	0		1.3806396484375	-0.7493887939453125	0		3.075463623046875	-0.14178570556640624	0		4.56752099609375	0.011346686363220214	0		5.6128291015625	0.10812754058837891	0		-0.19209405517578124	5.9200458984375	0		
-0.0033280410766601564	0.005682526111602783	0		0.4647646484375	-2.457392578125	0		-0.9918353881835937	0.05110498046875	0		-0.7113235473632813	-2.536623291015625	0		1.3772529296875	-0.752721923828125	0		3.0750595703125	-0.14200369262695312	0		4.572001953125	0.0032012929916381836	0		5.61648974609375	0.11508795166015626	0		-0.19304580688476564	5.91953271484375	0		
0.0012135720252990723	1.5098099410533906E-4	0		0.43559521484375	-2.4574580078125	0		-1.076166259765625	0.05659283065795898	0		-0.7135128784179687	-2.53913232421875	0		1.3769261474609376	-0.7530659790039063	0		3.061640869140625	-0.14503103637695314	0		4.56853173828125	-0.0028144419193267822	0		5.60689794921875	0.10024270629882813	0		-0.1939790802001953	5.9190458984375	0		
-0.00409705400466919	0.0047729120254516606	0		0.4624171142578125	-2.460192626953125	0		-1.0256719970703125	0.04542533493041992	0		-0.7156813354492187	-2.541611328125	0		1.3766212158203126	-0.7533814697265625	0		3.04934375	-0.14004638671875	0		4.5492470703125	0.00439263105392456	0		5.59749169921875	0.09842030334472657	0		-0.17976318359375	5.92840234375	0		
4.906579852104187E-4	-6.964470148086547E-4	0		0.4462367858886719	-2.464362548828125	0		-1.0650107421875	0.04640605926513672	0		-0.7008568115234375	-2.5462666015625	0		1.37937451171875	-0.7507047119140625	0		3.08295458984375	-0.14460218811035155	0		4.56887060546875	0.0021415050029754638	0		5.62022998046875	0.10622428894042969	0		-0.18063772583007812	5.927978515625	0		
0.01128567123413086	0.008794053077697754	0		0.4682549743652344	-2.453968017578125	0		-1.0613048095703126	0.048890945434570315	0		-0.70578076171875	-2.5316416015625	0		1.382161376953125	-0.74699755859375	0		3.052752685546875	-0.13534613037109375	0		4.57055615234375	0.003135241985321045	0		5.61089501953125	0.10644275665283204	0		-0.14740287780761718	5.9331728515625	0		
-0.0050767030715942385	0.0036489880084991455	0		0.43712167358398435	-2.4568935546875	0		-1.0715860595703126	0.05058388900756836	0		-0.7119579467773437	-2.538967041015625	0		1.37583642578125	-0.7541503295898437	0		3.06033984375	-0.1455302276611328	0		4.56535107421875	0.011232994079589843	0		5.60060888671875	0.10868762969970704	0		-0.19738627624511718	5.91741552734375	0		
-4.159879982471466E-4	-0.001717810034751892	0		0.46198687744140626	-2.461466552734375	0		-1.0388226318359375	0.053795101165771485	0		-0.7140602416992188	-2.541305419921875	0		1.3756175537109374	-0.7543484497070313	0		3.05304931640625	-0.14751113891601564	0		4.5669033203125	-0.0027368600368499756	0		5.59622607421875	0.10087120056152343	0		-0.1981309814453125	5.91709326171875	0		
-6.709799766540527E-4	-0.0019915879964828493	0		0.4349405822753906	-2.4593828125	0		-1.072127197265625	0.04983949661254883	0		-0.71412646484375	-2.541632080078125	0		1.37541845703125	-0.7545198974609375	0		3.05982861328125	-0.14564187622070313	0		4.558720703125	0.0034242119789123534	0		5.6049267578125	0.0979059066772461	0		-0.21776470947265625	5.9220322265625	0		
-0.005843009948730469	0.00282538104057312	0		0.4369033203125	-2.45761865234375	0		-1.0664227294921875	0.04445170211791992	0		-0.712157958984375	-2.539947998046875	0		1.3782744140625	-0.7517022705078125	0		3.051726318359375	-0.13557662963867187	0		4.5645830078125	0.011427261352539063	0		5.6139013671875	0.11594532775878906	0		-0.18435166931152344	5.92636962890625	0		
0.005970936775207519	0.004471086025238037	0		0.4388892211914063	-2.454825927734375	0		-1.0395296630859374	0.05285064315795898	0		-0.7101785888671875	-2.538229736328125	0		1.3781143798828126	-0.75182470703125	0		3.067525146484375	-0.13578004455566406	0		4.56927880859375	0.0034526240825653075	0		5.61368505859375	0.11609729766845703	0		-0.18494430541992188	5.92614599609375	0		
-0.0012961740493774414	-0.0026284780502319337	0		0.463791259765625	-2.4602763671875	0		-1.0397176513671875	0.05260530853271484	0		-0.7122343139648437	-2.540431396484375	0		1.3749395751953124	-0.7548892211914062	0		3.072265625	-0.1428369140625	0		4.56909375	0.0035444250106811525	0		5.6094111328125	0.10929947662353516	0		-0.16654560852050782	5.920728515625	0		
-0.006397653102874756	0.0022737629413604734	0		0.46174407958984376	-2.462383056640625	0		-1.0008838500976562	0.051934432983398435	0		-0.6403407592773438	-2.548470458984375	0		1.3748209228515624	-0.75496875	0		3.059078857421875	-0.14566958618164064	0		4.5689326171875	0.0036423349380493163	0		5.5992451171875	0.10957240295410156	0		-0.20109141540527345	5.91596240234375	0		
-0.0015919829607009888	-0.0029157869815826416	0		0.43273641967773435	-2.46215234375	0		-1.0790167236328125	0.052662376403808595	0		-0.7142825927734375	-2.54277099609375	0		1.3747239990234374	-0.7550296630859376	0		3.05598583984375	-0.14260960388183594	0		4.5627158203125	-0.0031848039627075195	0		5.60398681640625	0.09966976165771485	0		-0.18641368103027345	5.92564501953125	0		
-0.001700837016105652	-0.0030243699550628663	0		0.43678887939453126	-2.458287353515625	0		-1.067233642578125	0.04336449432373047	0		-0.7122494506835938	-2.5409365234375	0		1.37768505859375	-0.7521089477539062	0		3.10091552734375	-0.14009837341308592	0		4.56176953125	0.010930892944335937	0		5.613849609375	0.09770740509033203	0		-0.18581167602539062	5.92451611328125	0		
